<mxfile host="app.diagrams.net" modified="2021-11-21T16:13:50.480Z" agent="5.0 (Macintosh; Intel Mac OS X 10_15_7) AppleWebKit/537.36 (KHTML, like Gecko) Chrome/96.0.4664.55 Safari/537.36" etag="5sSqxsmUPqNTq2kSYK2L" version="15.8.2" type="github">
  <diagram id="WLfL5hOYECxFsfR8NNDy" name="Page-1">
    <mxGraphModel dx="1426" dy="794" grid="1" gridSize="10" guides="1" tooltips="1" connect="1" arrows="1" fold="1" page="1" pageScale="1" pageWidth="827" pageHeight="1169" math="0" shadow="0">
      <root>
        <mxCell id="0" />
        <mxCell id="1" parent="0" />
        <mxCell id="PU0FmzWjvfORaXqxowcy-3" style="edgeStyle=orthogonalEdgeStyle;rounded=0;orthogonalLoop=1;jettySize=auto;html=1;exitX=0.5;exitY=1;exitDx=0;exitDy=0;entryX=0.5;entryY=0;entryDx=0;entryDy=0;" edge="1" parent="1" source="PU0FmzWjvfORaXqxowcy-1" target="PU0FmzWjvfORaXqxowcy-4">
          <mxGeometry relative="1" as="geometry">
            <mxPoint x="150" y="170" as="targetPoint" />
          </mxGeometry>
        </mxCell>
        <mxCell id="PU0FmzWjvfORaXqxowcy-1" value="购买次数包" style="rounded=0;whiteSpace=wrap;html=1;" vertex="1" parent="1">
          <mxGeometry x="90" y="40" width="120" height="60" as="geometry" />
        </mxCell>
        <mxCell id="PU0FmzWjvfORaXqxowcy-8" value="" style="edgeStyle=orthogonalEdgeStyle;rounded=0;orthogonalLoop=1;jettySize=auto;html=1;" edge="1" parent="1" source="PU0FmzWjvfORaXqxowcy-4" target="PU0FmzWjvfORaXqxowcy-7">
          <mxGeometry relative="1" as="geometry" />
        </mxCell>
        <mxCell id="PU0FmzWjvfORaXqxowcy-4" value="开通付费" style="rounded=0;whiteSpace=wrap;html=1;" vertex="1" parent="1">
          <mxGeometry x="90" y="180" width="120" height="60" as="geometry" />
        </mxCell>
        <mxCell id="PU0FmzWjvfORaXqxowcy-7" value="" style="whiteSpace=wrap;html=1;rounded=0;" vertex="1" parent="1">
          <mxGeometry x="90" y="320" width="120" height="60" as="geometry" />
        </mxCell>
        <mxCell id="PU0FmzWjvfORaXqxowcy-11" value="" style="edgeStyle=orthogonalEdgeStyle;rounded=0;orthogonalLoop=1;jettySize=auto;html=1;" edge="1" parent="1" source="PU0FmzWjvfORaXqxowcy-9" target="PU0FmzWjvfORaXqxowcy-10">
          <mxGeometry relative="1" as="geometry" />
        </mxCell>
        <mxCell id="PU0FmzWjvfORaXqxowcy-9" value="购买QPS" style="rounded=0;whiteSpace=wrap;html=1;" vertex="1" parent="1">
          <mxGeometry x="320" y="40" width="120" height="60" as="geometry" />
        </mxCell>
        <mxCell id="PU0FmzWjvfORaXqxowcy-13" value="" style="edgeStyle=orthogonalEdgeStyle;rounded=0;orthogonalLoop=1;jettySize=auto;html=1;" edge="1" parent="1" source="PU0FmzWjvfORaXqxowcy-10" target="PU0FmzWjvfORaXqxowcy-12">
          <mxGeometry relative="1" as="geometry" />
        </mxCell>
        <mxCell id="PU0FmzWjvfORaXqxowcy-10" value="开通付费" style="whiteSpace=wrap;html=1;rounded=0;" vertex="1" parent="1">
          <mxGeometry x="320" y="180" width="120" height="60" as="geometry" />
        </mxCell>
        <mxCell id="PU0FmzWjvfORaXqxowcy-12" value="" style="rounded=0;whiteSpace=wrap;html=1;" vertex="1" parent="1">
          <mxGeometry x="320" y="320" width="120" height="60" as="geometry" />
        </mxCell>
      </root>
    </mxGraphModel>
  </diagram>
</mxfile>
